<?xml version="1.0" encoding="UTF-8" standalone="no"?>
<svg width="180px" height="140px" viewBox="0 0 180 140" version="1.1" xmlns="http://www.w3.org/2000/svg" xmlns:xlink="http://www.w3.org/1999/xlink" xmlns:sketch="http://www.bohemiancoding.com/sketch/ns">
    <!-- Generator: Sketch 3.3.3 (12072) - http://www.bohemiancoding.com/sketch -->
    <title>sinais-vitais</title>
    <desc>Created with Sketch.</desc>
    <defs></defs>
    <g id="Page-1" stroke="none" stroke-width="1" fill="none" fill-rule="evenodd" sketch:type="MSPage">
        <g id="sinais-vitais" sketch:type="MSLayerGroup" transform="translate(32.000000, 22.000000)" fill="#329FA5">
            <g id="Page-1" sketch:type="MSShapeGroup">
                <g id="sinais-vitais">
                    <g id="Page-1">
                        <path d="M94.84847,44.5105634 C94.689457,44.5105634 94.521357,44.4967463 94.353258,44.4599005 C93.049349,44.1835576 92.213394,42.8847456 92.481445,41.562905 L92.826731,40.1489501 C93.240165,38.7027552 93.444611,37.2058974 93.421894,35.6814053 C93.33103,28.0313105 88.310754,22.0438793 81.991113,22.0438793 C80.659945,22.0438793 79.578655,20.9477188 79.578655,19.5936383 C79.578655,18.2441634 80.650858,17.1480029 81.982027,17.1480029 C90.977634,17.1480029 98.124144,25.2586693 98.246811,35.6123195 C98.283157,37.6250176 98.015106,39.614687 97.465374,41.5122421 L97.210953,42.5623454 C96.970162,43.7183802 95.966106,44.5105634 94.84847,44.5105634 M33.9232235,10.3858902 C27.8534604,10.4089188 22.3606882,12.8223142 18.1354789,17.1793218 C13.2923895,22.1719182 10.566448,29.2923556 10.6663992,36.721376 C10.7027451,39.5124401 11.125266,42.2021784 11.933962,44.7307166 C12.9016712,48.9311299 18.021898,58.1932254 42.832509,77.76752 C47.7210307,81.599476 55.0310972,86.785512 58.9473665,89.548942 C63.0544517,86.670369 68.333692,82.552859 74.412541,77.468148 C98.655248,57.3365621 103.552856,47.857998 104.31612,43.993802 C105.170248,41.0046922 105.533707,38.296531 105.497361,35.5192841 C105.320175,21.3336779 94.929794,9.7917528 82.335945,9.7917528 C82.317772,9.7917528 81.858905,9.7963586 81.858905,9.7963586 C73.640191,9.9068957 66.2483465,14.415892 62.0685695,21.8587295 C61.2280709,23.3694045 59.6561113,24.3089706 57.9342249,24.3366049 C56.3304627,24.3319992 54.6267492,23.4615188 53.736275,21.9692667 C49.4156577,14.7152636 42.00564,10.3858902 33.9232235,10.3858902 M58.8746747,100.372375 C58.0750652,100.372375 57.2709125,100.169724 56.5439947,99.764421 C56.3304627,99.640066 56.126017,99.506501 55.9306579,99.354512 L54.4313901,98.295197 C50.846777,95.771265 42.4599636,89.857525 36.9035862,85.509729 C15.5912668,68.685047 4.7011305,56.5535904 2.6248717,47.3283406 C1.6344463,44.2885679 1.0483689,40.617812 1.0029365,36.8457304 C0.8802692,26.8282974 4.6057225,17.1562932 11.2433901,10.3121988 C17.2858938,4.0760589 25.2183836,0.6263774 33.5779375,0.5941374 L33.587024,0.5941374 C43.0096952,0.5941374 51.5918677,4.4583334 57.7661252,11.1918906 C63.8358883,4.2142304 72.399888,0.1289601 81.718065,0.0046057 L82.335945,0 C100.190862,0 114.910946,15.8759041 115.160824,35.3949297 C115.206256,39.1577999 114.7065,42.8377673 113.688815,46.3473231 C111.957842,55.1902984 101.085879,67.9803725 80.554996,85.03534 C72.654309,91.630726 66.2301736,96.540419 61.4597759,99.607826 C60.6783394,100.114455 59.7696922,100.372375 58.8746747,100.372375" id="Fill-1-Copy-5"></path>
                    </g>
                </g>
            </g>
        </g>
    </g>
</svg>